<?xml version="1.0" standalone="no"?>
<!DOCTYPE svg PUBLIC "-//W3C//DTD SVG 20010904//EN"
 "http://www.w3.org/TR/2001/REC-SVG-20010904/DTD/svg10.dtd">
<svg version="1.0" xmlns="http://www.w3.org/2000/svg"
 width="826.000000pt" height="826.000000pt" viewBox="0 0 826.000000 826.000000"
 preserveAspectRatio="xMidYMid meet">

<g transform="translate(0.000000,826.000000) scale(0.100000,-0.100000)"
fill="#000000" stroke="none">
<path d="M1888 5482 l-1348 -1347 0 -45 0 -45 1308 -1307 1307 -1308 46 0 c73
0 121 60 99 124 -7 21 -391 412 -1205 1226 -657 657 -1195 1198 -1195 1202 0
5 1516 8 3370 8 2401 0 3376 3 3393 11 26 12 57 57 57 84 0 31 -31 82 -56 94
-18 8 -896 11 -3394 11 -1854 0 -3370 3 -3370 8 0 4 554 561 1231 1237 677
677 1237 1244 1244 1260 29 67 -21 135 -98 135 l-42 0 -1347 -1348z"/>
</g>
</svg>
